<svg width="200" height="164" viewBox="0 0 200 164" fill="none" xmlns="http://www.w3.org/2000/svg">
<g clip-path="url(#clip0_932_6308)">
<path d="M162.766 16.4829C164.044 11.2863 162.829 5.22579 158.701 1.80762C158.62 7.62561 156.478 13.2276 152.653 17.6225C151.172 19.3121 149.348 21.0376 149.276 23.2804C149.232 24.676 149.915 26.0164 150.857 27.05C151.798 28.0835 152.986 28.857 154.16 29.6187L154.332 29.922C158.11 26.1222 161.488 21.6795 162.766 16.4829Z" fill="#F0F0F0"/>
<path d="M158.618 1.88335C160.201 6.02116 160.437 10.5512 159.291 14.83C159.061 15.7555 158.685 16.639 158.179 17.4481C157.661 18.2203 156.944 18.8399 156.104 19.2426C155.328 19.6337 154.489 19.9443 153.822 20.5166C153.485 20.8147 153.215 21.1803 153.03 21.5897C152.845 21.9991 152.748 22.4429 152.747 22.892C152.715 24.011 153.088 25.0748 153.489 26.1024C153.934 27.2435 154.415 28.4216 154.312 29.6709C154.299 29.8222 154.536 29.8327 154.548 29.6816C154.727 27.508 153.247 25.6721 153.012 23.5639C152.902 22.5802 153.089 21.5576 153.819 20.8404C154.457 20.2132 155.321 19.8922 156.11 19.503C156.936 19.1221 157.655 18.5456 158.205 17.8237C158.751 17.043 159.16 16.1753 159.414 15.2579C160.018 13.2016 160.295 11.0633 160.234 8.92124C160.177 6.47618 159.701 4.05879 158.827 1.77366C158.773 1.63224 158.564 1.74286 158.618 1.88335Z" fill="white"/>
<path d="M159.741 13.4736C160.488 13.5679 161.243 13.3946 161.873 12.9848C162.503 12.5749 162.966 11.9552 163.18 11.2363C163.222 11.0907 162.997 11.0176 162.955 11.1634C162.757 11.8332 162.325 12.4104 161.738 12.7909C161.151 13.1713 160.446 13.3299 159.752 13.2381C159.601 13.2183 159.591 13.454 159.741 13.4736Z" fill="white"/>
<path d="M156.524 19.0957C155.571 17.8926 155.108 16.3757 155.227 14.8475C155.239 14.6961 155.003 14.6856 154.991 14.8368C154.87 16.4274 155.355 18.0049 156.349 19.2547C156.444 19.3738 156.618 19.2141 156.524 19.0957Z" fill="white"/>
<path d="M159.892 6.60697C159.596 6.63049 159.299 6.58026 159.026 6.4608C158.754 6.34134 158.516 6.15638 158.334 5.92254C158.241 5.80233 158.067 5.96216 158.159 6.08157C158.362 6.33899 158.625 6.54294 158.926 6.67559C159.226 6.80825 159.554 6.86557 159.882 6.84255C159.913 6.84296 159.943 6.83156 159.966 6.81068C159.989 6.78979 160.003 6.76098 160.005 6.7301C160.006 6.6989 159.995 6.66846 159.974 6.64541C159.953 6.62235 159.924 6.60854 159.892 6.60697Z" fill="white"/>
<path d="M140.847 5.17188C140.903 5.24858 140.959 5.32528 141.014 5.40388C141.763 6.439 142.427 7.53307 142.998 8.6753C143.044 8.76292 143.088 8.85238 143.131 8.94112C144.478 11.7076 145.298 14.6994 145.55 17.7644C145.649 18.9841 145.654 20.2095 145.567 21.4301C145.446 23.1158 145.18 24.9339 145.612 26.5144C145.655 26.6798 145.708 26.8424 145.772 27.0012L153.947 30.1082C153.969 30.106 153.991 30.1056 154.013 30.1034L154.334 30.2424C154.343 30.1797 154.351 30.1146 154.36 30.0519C154.365 30.0156 154.369 29.9786 154.374 29.9423C154.377 29.9179 154.38 29.8934 154.384 29.8715C154.385 29.8634 154.386 29.8552 154.386 29.849C154.39 29.8271 154.392 29.8063 154.395 29.7863C154.44 29.4222 154.483 29.0572 154.523 28.6912C154.524 28.6894 154.524 28.6894 154.523 28.6868C154.856 25.9011 154.857 23.0858 154.525 20.2998C154.514 20.2168 154.503 20.132 154.489 20.0476C154.317 18.8049 154.043 17.5784 153.671 16.3801C153.465 15.7246 153.226 15.08 152.955 14.4486C152.25 12.8186 151.293 11.3092 150.119 9.97573C147.777 7.31778 144.608 5.43625 141.114 5.1882C141.024 5.18193 140.937 5.17628 140.847 5.17188Z" fill="#F0F0F0"/>
<path d="M140.826 5.28184C144.589 7.63518 147.512 11.1108 149.181 15.2151C149.556 16.0923 149.79 17.0229 149.874 17.9728C149.927 18.9007 149.729 19.8256 149.301 20.6514C148.918 21.4294 148.435 22.1809 148.249 23.0382C148.16 23.4785 148.165 23.9325 148.264 24.3706C148.363 24.8087 148.554 25.2209 148.825 25.5802C149.475 26.493 150.415 27.1185 151.355 27.6983C152.4 28.3421 153.495 28.9943 154.167 30.0535C154.249 30.1819 154.444 30.0484 154.362 29.9202C153.193 28.0773 150.902 27.5002 149.442 25.9579C148.76 25.2382 148.292 24.3094 148.441 23.2989C148.572 22.4152 149.069 21.6398 149.463 20.8554C149.892 20.0559 150.119 19.1638 150.122 18.2571C150.086 17.306 149.889 16.3679 149.538 15.483C148.779 13.4781 147.708 11.6047 146.366 9.93129C144.844 8.01301 143.005 6.36838 140.927 5.06856C140.798 4.98816 140.698 5.20196 140.826 5.28184Z" fill="white"/>
<path d="M148.721 13.8624C149.374 13.4897 149.873 12.8979 150.128 12.1926C150.383 11.4873 150.379 10.7144 150.116 10.0121C150.062 9.87012 149.838 9.94678 149.892 10.0889C150.138 10.7425 150.142 11.4624 149.903 12.1187C149.664 12.775 149.197 13.3244 148.588 13.6678C148.455 13.7426 148.59 13.9367 148.721 13.8624Z" fill="white"/>
<path d="M149.548 20.2828C148.06 19.8942 146.775 18.9609 145.947 17.6691C145.865 17.5411 145.67 17.6745 145.752 17.8024C146.616 19.1451 147.956 20.1136 149.504 20.5146C149.652 20.5528 149.694 20.3207 149.548 20.2828Z" fill="white"/>
<path d="M144.696 8.28897C144.474 8.48562 144.206 8.62412 143.916 8.69204C143.627 8.75995 143.325 8.75515 143.038 8.67806C142.891 8.63808 142.849 8.87016 142.995 8.90988C143.312 8.99357 143.646 8.99847 143.965 8.92414C144.285 8.84982 144.582 8.69853 144.83 8.48349C144.855 8.46517 144.872 8.43804 144.878 8.40759C144.883 8.37714 144.877 8.34567 144.86 8.31958C144.843 8.29391 144.815 8.2763 144.784 8.27057C144.754 8.26484 144.722 8.27145 144.696 8.28897Z" fill="white"/>
<path d="M130.037 122.556C102.628 122.556 80.3291 100.323 80.3291 72.9952C80.3291 45.6674 102.628 23.4346 130.037 23.4346C132.935 23.4342 135.827 23.6841 138.682 24.1814C138.717 24.1875 138.751 24.2006 138.782 24.2199C138.812 24.2391 138.839 24.2642 138.86 24.2937C138.88 24.3231 138.895 24.3564 138.903 24.3915C138.911 24.4266 138.912 24.463 138.905 24.4985C138.899 24.5339 138.886 24.5678 138.867 24.5982C138.847 24.6286 138.822 24.6549 138.792 24.6755C138.763 24.6962 138.729 24.7108 138.694 24.7186C138.659 24.7263 138.622 24.7271 138.587 24.7208C135.764 24.229 132.903 23.9819 130.037 23.9822C102.931 23.9822 80.8784 45.9693 80.8784 72.9952C80.8784 100.021 102.931 122.008 130.037 122.008C157.143 122.008 179.196 100.021 179.196 72.9952C179.208 60.7798 174.633 49.0023 166.372 39.9816C166.324 39.9278 166.298 39.8571 166.302 39.7848C166.305 39.7126 166.337 39.6446 166.391 39.5959C166.445 39.5471 166.515 39.5215 166.588 39.5246C166.66 39.5278 166.729 39.5594 166.778 39.6126C175.131 48.7342 179.757 60.6433 179.745 72.9952C179.745 100.323 157.446 122.556 130.037 122.556Z" fill="#E4E4E4"/>
<path d="M151.955 40.4325C157.387 40.4325 161.79 36.0424 161.79 30.6269C161.79 25.2114 157.387 20.8213 151.955 20.8213C146.523 20.8213 142.12 25.2114 142.12 30.6269C142.12 36.0424 146.523 40.4325 151.955 40.4325Z" fill="#2D2E30"/>
<path d="M150.613 35.7305C150.443 35.7305 150.276 35.691 150.124 35.6153C149.972 35.5395 149.84 35.4296 149.738 35.2941L147.055 31.7272C146.969 31.6126 146.906 31.4822 146.87 31.3434C146.835 31.2047 146.827 31.0603 146.847 30.9185C146.867 30.7767 146.915 30.6403 146.989 30.517C147.062 30.3938 147.159 30.2861 147.274 30.2002C147.388 30.1143 147.519 30.0517 147.658 30.0162C147.798 29.9806 147.942 29.9728 148.085 29.993C148.227 30.0133 148.364 30.0613 148.487 30.1343C148.611 30.2073 148.719 30.3038 148.805 30.4184L150.56 32.7517L155.069 26.0093C155.23 25.7695 155.48 25.6034 155.764 25.5472C156.048 25.491 156.343 25.5494 156.584 25.7096C156.825 25.8697 156.992 26.1185 157.05 26.4016C157.107 26.6846 157.049 26.9786 156.889 27.2193L151.523 35.2447C151.426 35.3899 151.296 35.5097 151.143 35.5941C150.989 35.6786 150.818 35.7252 150.643 35.7301C150.633 35.7303 150.623 35.7305 150.613 35.7305Z" fill="white"/>
<path d="M128.758 65.3044L113.592 23.2378L113.977 23.1L111.188 15.3628L110.803 15.5008L106.146 2.58502C105.972 2.10263 105.705 1.65912 105.359 1.2798C105.013 0.900486 104.596 0.592798 104.131 0.374304C103.666 0.15581 103.162 0.0307879 102.648 0.00638054C102.135 -0.0180269 101.622 0.058657 101.138 0.232052L73.7207 10.058C73.2369 10.2314 72.7921 10.4981 72.4116 10.8429C72.0312 11.1877 71.7225 11.6038 71.5034 12.0675C71.2842 12.5312 71.1588 13.0334 71.1343 13.5454C71.1098 14.0575 71.1867 14.5693 71.3606 15.0517L74.6074 24.0573L73.9997 24.2906L76.0723 29.6566L76.5588 29.4698L76.9891 30.6634L76.4714 30.8622L78.544 36.2282L78.9404 36.076L93.9726 77.771C94.1457 78.254 94.4127 78.6981 94.7584 79.078C95.104 79.4578 95.5215 79.7659 95.9868 79.9845C96.4522 80.2031 96.9562 80.328 97.4701 80.352C97.9839 80.3759 98.4975 80.2985 98.9812 80.1241L126.398 70.2982C127.375 69.947 128.171 69.224 128.614 68.2878C129.056 67.3516 129.108 66.2787 128.758 65.3044Z" fill="#3F3D56"/>
<path d="M97.5398 78.7378C97.1537 78.737 96.7773 78.6176 96.4616 78.396C96.1459 78.1743 95.9064 77.8611 95.7755 77.499L72.925 14.1177C72.7567 13.6509 72.7814 13.1365 72.9934 12.6878C73.2055 12.2391 73.5876 11.8927 74.0558 11.7249L79.8893 9.63424L79.8806 9.83773C79.8656 10.191 79.938 10.5425 80.0914 10.8612C80.2447 11.18 80.4744 11.4563 80.7601 11.6657C81.0458 11.8752 81.3788 12.0113 81.7297 12.0623C82.0806 12.1132 82.4387 12.0772 82.7724 11.9577L95.7186 7.31791C96.0311 7.17516 96.3055 6.96107 96.5196 6.69296C96.7338 6.42485 96.8816 6.11025 96.9511 5.77463C97.0199 5.44459 97.0095 5.10301 96.9207 4.77776C96.8319 4.4525 96.6672 4.1528 96.4401 3.9031L96.3034 3.75161L102.329 1.59197C102.797 1.42487 103.313 1.44973 103.763 1.66111C104.213 1.8725 104.56 2.25314 104.729 2.71959L126.531 63.1906C126.975 64.4294 126.909 65.7936 126.347 66.9839C125.784 68.1742 124.771 69.0934 123.53 69.5399L98.1756 78.6266C97.9717 78.7 97.7566 78.7376 97.5398 78.7378Z" fill="white"/>
<path d="M95.3056 33.7821C99.4008 33.7821 102.721 30.4722 102.721 26.3891C102.721 22.3061 99.4008 18.9961 95.3056 18.9961C91.2104 18.9961 87.8906 22.3061 87.8906 26.3891C87.8906 30.4722 91.2104 33.7821 95.3056 33.7821Z" fill="#2D2E30"/>
<path d="M113.68 37.1404L88.0012 46.3433C87.921 46.3723 87.8359 46.3852 87.7507 46.3813C87.6655 46.3774 87.5819 46.3568 87.5047 46.3206C87.4275 46.2844 87.3582 46.2334 87.3007 46.1705C87.2433 46.1077 87.1989 46.0341 87.1701 45.954C87.1412 45.874 87.1285 45.7891 87.1326 45.7041C87.1367 45.6192 87.1576 45.5359 87.194 45.459C87.2305 45.3821 87.2818 45.3131 87.345 45.256C87.4082 45.1989 87.4821 45.1548 87.5624 45.1262L113.241 35.9233C113.403 35.8658 113.581 35.8746 113.736 35.9478C113.891 36.021 114.011 36.1525 114.069 36.3137C114.127 36.4748 114.119 36.6523 114.046 36.8073C113.973 36.9623 113.841 37.0821 113.68 37.1404Z" fill="#E6E6E6"/>
<path d="M106.055 42.976L97.6085 46.0031C97.5283 46.032 97.4432 46.0449 97.358 46.041C97.2728 46.037 97.1892 46.0164 97.112 45.9802C97.0348 45.9441 96.9655 45.8931 96.9081 45.8302C96.8507 45.7673 96.8064 45.6937 96.7775 45.6137C96.7487 45.5337 96.7359 45.4488 96.74 45.3638C96.7441 45.2789 96.765 45.1956 96.8014 45.1187C96.8378 45.0418 96.8891 44.9729 96.9523 44.9158C97.0155 44.8587 97.0894 44.8145 97.1697 44.7859L105.616 41.7588C105.778 41.7008 105.956 41.7093 106.112 41.7824C106.268 41.8555 106.388 41.9873 106.446 42.1487C106.504 42.3101 106.496 42.4879 106.422 42.6431C106.349 42.7982 106.217 42.918 106.055 42.976Z" fill="#E6E6E6"/>
<path d="M108.063 48.5483L99.6171 51.5754C99.5369 51.6041 99.4519 51.6168 99.3668 51.6128C99.2817 51.6087 99.1982 51.588 99.1212 51.5518C99.0441 51.5156 98.975 51.4646 98.9177 51.4018C98.8604 51.339 98.8161 51.2655 98.7873 51.1856C98.7584 51.1056 98.7457 51.0208 98.7498 50.936C98.7538 50.8512 98.7746 50.768 98.8109 50.6911C98.8472 50.6143 98.8983 50.5454 98.9613 50.4882C99.0244 50.4311 99.0981 50.3869 99.1782 50.3582L107.625 47.3311C107.787 47.2731 107.965 47.2815 108.121 47.3547C108.276 47.4278 108.396 47.5595 108.454 47.7209C108.513 47.8823 108.504 48.0602 108.431 48.2153C108.357 48.3705 108.225 48.4903 108.063 48.5483Z" fill="#E6E6E6"/>
<path d="M109.092 51.4022L100.646 54.4293C100.566 54.4583 100.481 54.4712 100.395 54.4673C100.31 54.4635 100.226 54.4428 100.149 54.4067C100.072 54.3705 100.003 54.3195 99.9453 54.2566C99.8879 54.1937 99.8435 54.1201 99.8146 54.0401C99.7857 53.96 99.773 53.8751 99.7771 53.7901C99.7812 53.7052 99.8021 53.6218 99.8386 53.5449C99.8751 53.468 99.9264 53.3991 99.9896 53.342C100.053 53.2849 100.127 53.2408 100.207 53.2122L108.654 50.1851C108.734 50.1562 108.819 50.1433 108.904 50.1472C108.989 50.1511 109.073 50.1717 109.15 50.2079C109.227 50.244 109.297 50.295 109.354 50.3579C109.411 50.4208 109.456 50.4944 109.485 50.5744C109.514 50.6545 109.526 50.7394 109.522 50.8243C109.518 50.9093 109.497 50.9926 109.461 51.0695C109.424 51.1464 109.373 51.2153 109.31 51.2724C109.247 51.3295 109.173 51.3736 109.092 51.4022Z" fill="#E6E6E6"/>
<path d="M111.782 44.0253L93.8616 50.4478C93.7814 50.4767 93.6962 50.4896 93.611 50.4857C93.5258 50.4818 93.4422 50.4612 93.365 50.425C93.2878 50.3889 93.2185 50.3379 93.1611 50.275C93.1037 50.2121 93.0593 50.1385 93.0304 50.0585C93.0016 49.9784 92.9888 49.8935 92.9929 49.8086C92.997 49.7236 93.0179 49.6403 93.0544 49.5634C93.0908 49.4865 93.1421 49.4175 93.2053 49.3604C93.2686 49.3033 93.3424 49.2592 93.4228 49.2306L111.343 42.8082C111.423 42.7792 111.509 42.7663 111.594 42.7702C111.679 42.7741 111.763 42.7947 111.84 42.8309C111.917 42.8671 111.986 42.9181 112.044 42.981C112.101 43.0439 112.146 43.1174 112.174 43.1975C112.203 43.2775 112.216 43.3624 112.212 43.4474C112.208 43.5323 112.187 43.6156 112.15 43.6925C112.114 43.7694 112.063 43.8384 111.999 43.8955C111.936 43.9526 111.862 43.9967 111.782 44.0253Z" fill="#E6E6E6"/>
<path d="M108.172 58.3305L105.105 59.4297C104.83 59.5281 104.527 59.5135 104.262 59.3892C103.998 59.2648 103.794 59.0409 103.695 58.7665C103.596 58.4922 103.61 58.1899 103.735 57.9262C103.859 57.6624 104.084 57.4588 104.359 57.36L107.426 56.2609C107.701 56.1624 108.004 56.177 108.269 56.3013C108.533 56.4257 108.737 56.6496 108.836 56.924C108.935 57.1983 108.921 57.5006 108.796 57.7643C108.672 58.0281 108.447 58.2317 108.172 58.3305Z" fill="#2D2E30"/>
<path d="M84.0046 9.83875C84.2402 9.83875 84.4311 9.64836 84.4311 9.41351C84.4311 9.17866 84.2402 8.98828 84.0046 8.98828C83.7691 8.98828 83.5781 9.17866 83.5781 9.41351C83.5781 9.64836 83.7691 9.83875 84.0046 9.83875Z" fill="white"/>
<path d="M34.9559 33.3301C39.736 27.72 47.4919 24.1845 54.6424 26.0175C48.2023 30.7978 43.6656 37.6952 41.8351 45.4894C41.1401 48.4979 40.6812 51.9162 38.2314 53.8043C36.7071 54.9791 34.6574 55.3003 32.7427 55.0871C30.8279 54.8738 29.0054 54.1772 27.2075 53.4867L26.7295 53.5396C27.932 46.2767 30.1758 38.9401 34.9559 33.3301Z" fill="#F0F0F0"/>
<path d="M54.6247 26.171C48.7216 27.7471 43.4667 31.1376 39.6063 35.861C38.7572 36.8631 38.0718 37.9924 37.5753 39.2073C37.1301 40.4064 37.015 41.7024 37.2421 42.9608C37.4301 44.1384 37.7593 45.3213 37.657 46.5239C37.5954 47.1387 37.4042 47.7337 37.0959 48.2697C36.7876 48.8057 36.3691 49.2706 35.8679 49.634C34.6427 50.572 33.1526 51.0151 31.6802 51.3979C30.0455 51.823 28.3407 52.2386 27.0269 53.3602C26.8677 53.4961 26.6655 53.2419 26.8245 53.1062C29.1103 51.1548 32.3567 51.3203 34.9033 49.8817C36.0915 49.2104 37.084 48.178 37.2978 46.7889C37.4848 45.5742 37.1464 44.3542 36.9457 43.1635C36.7061 41.9391 36.7709 40.6749 37.1344 39.4812C37.5672 38.245 38.2078 37.0913 39.0289 36.0694C40.8405 33.7394 43.0083 31.7078 45.4529 30.0492C48.2323 28.1408 51.3187 26.7205 54.5785 25.8498C54.7803 25.796 54.8251 26.1175 54.6247 26.171Z" fill="white"/>
<path d="M40.7588 34.2667C40.0519 33.5134 39.6366 32.5341 39.587 31.5036C39.5375 30.4731 39.857 29.4587 40.4884 28.6414C40.6167 28.4764 40.8798 28.6675 40.7513 28.8327C40.1619 29.5927 39.8644 30.5377 39.9125 31.4971C39.9606 32.4566 40.3511 33.3673 41.0135 34.0649C41.1573 34.2167 40.9017 34.4176 40.7588 34.2667Z" fill="white"/>
<path d="M37.0672 42.376C39.1804 42.465 41.2497 41.7566 42.8624 40.392C43.022 40.2567 43.2243 40.5109 43.0648 40.6461C41.3839 42.0629 39.229 42.7958 37.0301 42.6983C36.8206 42.6889 36.8587 42.3666 37.0672 42.376Z" fill="white"/>
<path d="M48.3153 28.5629C48.5279 28.9112 48.824 29.2015 49.1769 29.4075C49.5298 29.6135 49.9285 29.729 50.3371 29.7434C50.5467 29.7502 50.5084 30.0725 50.3001 30.0658C49.8487 30.0477 49.4085 29.9197 49.0181 29.6929C48.6277 29.4661 48.299 29.1474 48.0606 28.7648C48.0351 28.7306 48.0236 28.688 48.0284 28.6456C48.0333 28.6033 48.0541 28.5644 48.0867 28.5368C48.1206 28.5103 48.1636 28.4981 48.2064 28.503C48.2492 28.5079 48.2884 28.5294 48.3153 28.5629Z" fill="white"/>
<path d="M65.2745 48.574C65.1435 48.5735 65.0125 48.573 64.8799 48.5747C63.1187 48.5768 61.3605 48.7215 59.6229 49.0075C59.4882 49.0274 59.3519 49.0497 59.2181 49.0735C55.039 49.8069 51.0327 51.3076 47.4031 53.4991C45.9595 54.3725 44.5847 55.3542 43.2906 56.4355C41.5034 57.9291 39.6848 59.6902 37.5694 60.4844C37.3496 60.5698 37.1247 60.6415 36.8961 60.6991L26.8308 54.117C26.8155 54.0906 26.7985 54.0664 26.7831 54.04L26.3691 53.7955C26.432 53.7351 26.4985 53.6737 26.5613 53.6133C26.5976 53.5781 26.6361 53.5444 26.6725 53.5092C26.6974 53.4862 26.7224 53.4632 26.7436 53.4411C26.7518 53.4334 26.7602 53.4258 26.767 53.4204C26.7881 53.3982 26.8101 53.3798 26.8298 53.3599C27.2004 53.0162 27.5741 52.6744 27.9509 52.3346C27.9524 52.3323 27.9524 52.3323 27.9562 52.3315C30.8336 49.7499 33.9525 47.3852 37.3322 45.5676C37.4339 45.5129 37.537 45.4559 37.6433 45.4043C39.1712 44.5934 40.7631 43.9084 42.403 43.3561C43.302 43.0566 44.2155 42.8026 45.1402 42.5952C47.5305 42.0638 49.9898 41.9106 52.4278 42.1412C57.288 42.6015 61.9464 44.6065 65.0408 48.2903C65.1199 48.3846 65.1969 48.4774 65.2745 48.574Z" fill="#F0F0F0"/>
<path d="M65.1684 48.6865C59.5034 46.4014 53.2603 45.9541 47.3257 47.4081C46.0426 47.6985 44.8134 48.1887 43.6834 48.8608C42.6038 49.5509 41.7293 50.5166 41.1507 51.6577C40.5897 52.7108 40.1383 53.8528 39.3303 54.7517C38.9099 55.2056 38.398 55.5659 37.8282 55.8088C37.2583 56.0516 36.6434 56.1717 36.0238 56.161C34.4792 56.1745 33.0218 55.6337 31.615 55.0556C30.0531 54.4136 28.4409 53.7222 26.7146 53.829C26.5055 53.842 26.4976 53.5176 26.7064 53.5047C29.7099 53.3188 32.202 55.3997 35.104 55.7796C36.4582 55.9569 37.8741 55.7284 38.8836 54.7477C39.7664 53.8901 40.2329 52.7128 40.7916 51.6416C41.3397 50.5202 42.1549 49.5497 43.1659 48.8148C44.2579 48.0876 45.4661 47.5509 46.7388 47.2279C49.5923 46.455 52.5499 46.1342 55.5033 46.2773C58.875 46.422 62.1969 47.1407 65.3255 48.4023C65.5191 48.4804 65.3608 48.7641 65.1684 48.6865Z" fill="white"/>
<path d="M49.2091 46.8273C49.0996 45.8014 49.3594 44.7702 49.9421 43.9177C50.5248 43.0652 51.3924 42.447 52.3901 42.1734C52.5921 42.1188 52.6868 42.4293 52.4845 42.484C51.555 42.737 50.7468 43.313 50.2058 44.1079C49.6649 44.9029 49.4267 45.8644 49.5344 46.8191C49.5575 47.0266 49.2321 47.0336 49.2091 46.8273Z" fill="white"/>
<path d="M41.365 51.0862C42.9985 52.4258 45.0785 53.1024 47.1901 52.9809C47.3994 52.9687 47.4073 53.293 47.1984 53.3052C45.0007 53.4275 42.8376 52.7191 41.1408 51.3213C40.9791 51.188 41.2042 50.9536 41.365 51.0862Z" fill="white"/>
<path d="M58.6862 46.8085C58.6456 47.2142 58.7067 47.6236 58.8641 48C59.0214 48.3763 59.27 48.7078 59.5876 48.9647C59.7509 49.0959 59.5256 49.3302 59.3634 49.1998C59.0139 48.9144 58.7397 48.548 58.565 48.1326C58.3902 47.7171 58.3201 47.2653 58.3609 46.8167C58.3612 46.7741 58.3777 46.7332 58.4072 46.7023C58.4366 46.6714 58.4768 46.6529 58.5194 46.6504C58.5625 46.6496 58.6042 46.6657 58.6354 46.6953C58.6666 46.7249 58.6849 46.7655 58.6862 46.8085Z" fill="white"/>
<path d="M178.414 141.156C183.626 142.43 189.704 141.219 193.133 137.102C187.297 137.022 181.679 134.886 177.271 131.073C175.576 129.596 173.845 127.778 171.596 127.706C170.196 127.662 168.852 128.343 167.815 129.282C166.778 130.22 166.003 131.405 165.239 132.575L164.935 132.747C168.746 136.514 173.202 139.882 178.414 141.156Z" fill="#F0F0F0"/>
<path d="M193.056 137.019C188.906 138.598 184.362 138.833 180.071 137.69C179.142 137.461 178.256 137.087 177.445 136.582C176.67 136.065 176.049 135.35 175.645 134.513C175.253 133.739 174.941 132.903 174.367 132.238C174.068 131.902 173.701 131.633 173.291 131.448C172.88 131.263 172.435 131.167 171.985 131.166C170.862 131.134 169.795 131.506 168.765 131.906C167.62 132.349 166.439 132.829 165.186 132.726C165.034 132.714 165.023 132.949 165.175 132.962C167.355 133.14 169.196 131.664 171.311 131.43C172.297 131.321 173.323 131.507 174.042 132.234C174.671 132.87 174.993 133.733 175.384 134.519C175.766 135.342 176.344 136.059 177.068 136.608C177.851 137.152 178.721 137.56 179.641 137.813C181.704 138.416 183.849 138.692 185.997 138.63C188.449 138.574 190.874 138.1 193.166 137.228C193.308 137.174 193.197 136.966 193.056 137.019Z" fill="white"/>
<path d="M181.431 138.14C181.337 138.883 181.511 139.637 181.922 140.265C182.333 140.893 182.954 141.354 183.675 141.568C183.821 141.61 183.895 141.386 183.748 141.343C183.077 141.146 182.498 140.716 182.116 140.13C181.735 139.545 181.576 138.842 181.668 138.15C181.688 138 181.451 137.99 181.431 138.14Z" fill="white"/>
<path d="M175.792 134.931C176.999 133.981 178.521 133.52 180.053 133.639C180.205 133.65 180.216 133.415 180.064 133.403C178.469 133.282 176.886 133.766 175.633 134.757C175.514 134.852 175.674 135.025 175.792 134.931Z" fill="white"/>
<path d="M188.318 138.29C188.295 137.995 188.345 137.698 188.465 137.427C188.585 137.156 188.77 136.919 189.005 136.737C189.125 136.644 188.965 136.47 188.845 136.562C188.587 136.765 188.383 137.027 188.25 137.327C188.117 137.626 188.059 137.953 188.082 138.28C188.082 138.311 188.093 138.341 188.114 138.364C188.135 138.386 188.164 138.401 188.195 138.403C188.226 138.404 188.257 138.393 188.28 138.372C188.303 138.351 188.317 138.322 188.318 138.29Z" fill="white"/>
<path d="M189.758 119.302C189.681 119.358 189.604 119.414 189.526 119.469C188.487 120.216 187.39 120.877 186.244 121.447C186.157 121.492 186.067 121.537 185.978 121.58C183.203 122.922 180.202 123.74 177.128 123.991C175.905 124.089 174.676 124.095 173.452 124.008C171.761 123.887 169.938 123.622 168.352 124.053C168.186 124.096 168.023 124.149 167.864 124.212L164.748 132.364C164.75 132.386 164.75 132.407 164.753 132.429L164.613 132.749C164.676 132.758 164.741 132.766 164.804 132.775C164.841 132.78 164.878 132.784 164.914 132.789C164.939 132.792 164.963 132.795 164.985 132.799C164.993 132.8 165.002 132.801 165.008 132.801C165.03 132.805 165.051 132.807 165.071 132.81C165.436 132.855 165.802 132.898 166.169 132.938C166.171 132.938 166.171 132.938 166.173 132.937C168.967 133.27 171.791 133.27 174.585 132.939C174.669 132.928 174.754 132.918 174.838 132.903C176.085 132.732 177.315 132.459 178.517 132.088C179.174 131.883 179.821 131.644 180.454 131.374C182.089 130.672 183.603 129.718 184.94 128.546C187.606 126.211 189.493 123.052 189.742 119.568C189.748 119.479 189.754 119.392 189.758 119.302Z" fill="#F0F0F0"/>
<path d="M189.648 119.281C187.287 123.032 183.801 125.947 179.685 127.611C178.805 127.985 177.872 128.218 176.919 128.302C175.988 128.354 175.061 128.157 174.232 127.731C173.452 127.349 172.698 126.868 171.838 126.682C171.397 126.593 170.941 126.598 170.502 126.697C170.063 126.796 169.649 126.986 169.289 127.256C168.373 127.904 167.746 128.841 167.164 129.779C166.519 130.821 165.865 131.912 164.802 132.583C164.674 132.664 164.807 132.858 164.936 132.777C166.784 131.611 167.363 129.327 168.91 127.871C169.632 127.191 170.563 126.725 171.577 126.874C172.463 127.004 173.241 127.499 174.028 127.893C174.83 128.32 175.724 128.546 176.634 128.549C177.588 128.514 178.529 128.317 179.416 127.967C181.427 127.21 183.306 126.143 184.984 124.804C186.908 123.287 188.558 121.453 189.862 119.381C189.942 119.253 189.728 119.153 189.648 119.281Z" fill="white"/>
<path d="M181.042 127.152C181.416 127.803 182.009 128.3 182.717 128.555C183.424 128.809 184.199 128.805 184.904 128.543C185.046 128.489 184.969 128.266 184.827 128.32C184.171 128.565 183.449 128.569 182.791 128.331C182.133 128.092 181.582 127.627 181.237 127.019C181.162 126.887 180.968 127.021 181.042 127.152Z" fill="white"/>
<path d="M174.602 127.976C174.992 126.493 175.928 125.211 177.223 124.386C177.352 124.304 177.218 124.11 177.09 124.191C175.743 125.053 174.772 126.389 174.369 127.933C174.331 128.08 174.564 128.122 174.602 127.976Z" fill="white"/>
<path d="M186.632 123.139C186.435 122.917 186.296 122.65 186.228 122.362C186.16 122.073 186.164 121.772 186.242 121.486C186.282 121.339 186.049 121.297 186.009 121.443C185.925 121.759 185.92 122.092 185.995 122.411C186.069 122.729 186.221 123.025 186.437 123.272C186.455 123.297 186.482 123.314 186.513 123.32C186.544 123.326 186.575 123.32 186.601 123.303C186.627 123.285 186.645 123.258 186.65 123.227C186.656 123.196 186.65 123.165 186.632 123.139Z" fill="white"/>
<path d="M199.298 91.2088L191.35 104.544L191.652 104.702L188.961 109.79L188.4 109.494L186.632 112.46L187.071 112.712L184.188 117.69L183.688 117.402L157.755 160.917C157.074 162.056 155.969 162.879 154.681 163.206C153.392 163.533 152.027 163.337 150.883 162.661L102.672 134.099C101.53 133.421 100.704 132.319 100.376 131.035C100.048 129.75 100.244 128.389 100.923 127.248L142.466 57.5404C143.146 56.4016 144.251 55.5784 145.54 55.2514C146.828 54.9244 148.194 55.1203 149.337 55.7962L197.548 84.3579C198.69 85.0363 199.516 86.1385 199.844 87.4228C200.171 88.7071 199.975 90.0686 199.298 91.2088Z" fill="#3F3D56"/>
<path d="M152.601 159.97L104.22 131.308C103.868 131.099 103.614 130.759 103.513 130.363C103.412 129.968 103.472 129.548 103.681 129.196L145.5 59.0246C145.71 58.6736 146.05 58.4199 146.448 58.3192C146.845 58.2184 147.266 58.2788 147.618 58.487L195.999 87.1491C196.351 87.3582 196.606 87.698 196.707 88.0939C196.808 88.4898 196.747 88.9095 196.538 89.2609L154.719 159.433C154.51 159.784 154.169 160.037 153.772 160.138C153.375 160.239 152.954 160.179 152.601 159.97Z" fill="white"/>
<path d="M172.475 71.7089C172.711 71.7089 172.902 71.5185 172.902 71.2836C172.902 71.0488 172.711 70.8584 172.475 70.8584C172.24 70.8584 172.049 71.0488 172.049 71.2836C172.049 71.5185 172.24 71.7089 172.475 71.7089Z" fill="white"/>
<path d="M169.836 121.975L129.449 98.0492C129.323 97.9748 129.212 97.8762 129.124 97.7591C129.035 97.642 128.971 97.5086 128.934 97.3666C128.898 97.2247 128.89 97.0769 128.911 96.9318C128.932 96.7867 128.981 96.6472 129.056 96.5212C129.131 96.3952 129.23 96.2852 129.348 96.1976C129.466 96.1099 129.6 96.0463 129.743 96.0104C129.885 95.9746 130.033 95.9671 130.179 95.9885C130.324 96.0098 130.464 96.0596 130.59 96.135L170.976 120.061C171.103 120.135 171.214 120.234 171.302 120.351C171.39 120.468 171.455 120.601 171.491 120.743C171.528 120.885 171.536 121.033 171.515 121.178C171.494 121.323 171.445 121.463 171.37 121.589C171.295 121.715 171.195 121.825 171.077 121.912C170.96 122 170.826 122.064 170.683 122.099C170.541 122.135 170.392 122.143 170.247 122.121C170.101 122.1 169.962 122.05 169.836 121.975Z" fill="#E6E6E6"/>
<path d="M153.71 118.268L140.426 110.398C140.3 110.323 140.19 110.224 140.102 110.107C140.014 109.99 139.951 109.857 139.914 109.715C139.878 109.574 139.87 109.426 139.891 109.281C139.912 109.137 139.962 108.998 140.037 108.872C140.111 108.746 140.211 108.636 140.328 108.549C140.445 108.461 140.579 108.398 140.721 108.362C140.863 108.325 141.011 108.318 141.156 108.339C141.302 108.36 141.441 108.409 141.567 108.483L154.851 116.353C154.977 116.428 155.087 116.527 155.175 116.644C155.263 116.761 155.327 116.894 155.363 117.036C155.399 117.177 155.407 117.325 155.386 117.47C155.365 117.614 155.316 117.754 155.241 117.879C155.166 118.005 155.067 118.115 154.95 118.202C154.832 118.29 154.698 118.353 154.556 118.389C154.414 118.426 154.266 118.433 154.121 118.412C153.976 118.392 153.837 118.342 153.71 118.268Z" fill="#E6E6E6"/>
<path d="M148.487 127.032L135.203 119.162C134.949 119.011 134.765 118.766 134.692 118.48C134.619 118.194 134.663 117.89 134.814 117.636C134.965 117.383 135.211 117.199 135.498 117.126C135.785 117.053 136.09 117.097 136.344 117.248L149.628 125.118C149.754 125.192 149.864 125.291 149.952 125.408C150.04 125.525 150.104 125.659 150.14 125.8C150.176 125.942 150.184 126.089 150.163 126.234C150.142 126.379 150.093 126.518 150.018 126.644C149.943 126.769 149.844 126.879 149.727 126.967C149.609 127.054 149.475 127.118 149.333 127.154C149.191 127.19 149.043 127.198 148.898 127.177C148.753 127.156 148.614 127.107 148.487 127.032Z" fill="#E6E6E6"/>
<path d="M145.812 131.521L132.528 123.651C132.402 123.576 132.291 123.478 132.203 123.361C132.115 123.244 132.051 123.11 132.014 122.968C131.978 122.827 131.97 122.679 131.991 122.534C132.012 122.389 132.061 122.25 132.136 122.124C132.211 121.998 132.31 121.888 132.428 121.8C132.546 121.713 132.68 121.649 132.822 121.613C132.964 121.577 133.112 121.57 133.258 121.591C133.403 121.612 133.543 121.662 133.669 121.737L146.953 129.607C147.08 129.681 147.19 129.779 147.279 129.897C147.367 130.014 147.431 130.147 147.468 130.289C147.505 130.431 147.513 130.579 147.492 130.724C147.471 130.869 147.422 131.009 147.346 131.135C147.271 131.261 147.172 131.371 147.054 131.458C146.936 131.546 146.802 131.61 146.66 131.645C146.517 131.681 146.369 131.689 146.223 131.667C146.078 131.646 145.938 131.596 145.812 131.521Z" fill="#E6E6E6"/>
<path d="M158.585 127.003L130.401 110.305C130.147 110.154 129.965 109.909 129.892 109.623C129.82 109.338 129.864 109.035 130.015 108.782C130.166 108.529 130.411 108.345 130.697 108.272C130.983 108.199 131.287 108.242 131.542 108.391L159.726 125.088C159.853 125.163 159.963 125.261 160.052 125.378C160.14 125.496 160.205 125.629 160.241 125.771C160.278 125.913 160.286 126.061 160.265 126.206C160.244 126.351 160.195 126.49 160.12 126.616C160.044 126.742 159.945 126.852 159.827 126.94C159.709 127.028 159.575 127.091 159.433 127.127C159.29 127.163 159.142 127.171 158.997 127.149C158.851 127.128 158.711 127.078 158.585 127.003Z" fill="#E6E6E6"/>
<path d="M153.213 148.341L148.39 145.484C147.958 145.227 147.645 144.809 147.521 144.323C147.397 143.837 147.472 143.321 147.729 142.89C147.986 142.459 148.405 142.147 148.892 142.023C149.38 141.899 149.897 141.973 150.33 142.228L155.153 145.086C155.586 145.342 155.899 145.76 156.023 146.246C156.148 146.733 156.073 147.249 155.816 147.681C155.558 148.112 155.14 148.424 154.652 148.548C154.164 148.672 153.646 148.598 153.213 148.341Z" fill="#2D2E30"/>
<path d="M162.213 101.945C167.673 101.945 172.1 97.5319 172.1 92.0878C172.1 86.6438 167.673 82.2305 162.213 82.2305C156.753 82.2305 152.326 86.6438 152.326 92.0878C152.326 97.5319 156.753 101.945 162.213 101.945Z" fill="#2D2E30"/>
<path d="M0.116211 132.145H133.911V54.9159C133.91 54.3373 133.679 53.7825 133.269 53.3734C132.858 52.9642 132.302 52.7341 131.722 52.7334H2.30529C1.72492 52.7341 1.16851 52.9642 0.75812 53.3734C0.347731 53.7825 0.116881 54.3373 0.116211 54.9159V132.145Z" fill="#CACACA"/>
<path d="M129.777 55.752H4.25V126.805H129.777V55.752Z" fill="white"/>
<path d="M1.79986e-10 130.056V139.586C-4.32764e-06 139.981 0.0780404 140.372 0.229678 140.737C0.381316 141.102 0.603579 141.434 0.883773 141.713C1.16397 141.993 1.49661 142.214 1.8627 142.365C2.2288 142.517 2.62118 142.594 3.01743 142.594H52.4V161.402H51.7439C51.6925 161.402 51.6415 161.413 51.5939 161.432C51.5464 161.452 51.5032 161.481 51.4668 161.517C51.4304 161.553 51.4015 161.596 51.3818 161.644C51.3621 161.691 51.352 161.742 51.352 161.793V163.101C51.352 163.153 51.3621 163.204 51.3818 163.251C51.4015 163.298 51.4304 163.341 51.4668 163.378C51.5032 163.414 51.5464 163.443 51.5939 163.462C51.6415 163.482 51.6925 163.492 51.7439 163.492H82.4C82.4514 163.492 82.5024 163.482 82.55 163.462C82.5975 163.443 82.6407 163.414 82.6771 163.378C82.7135 163.341 82.7424 163.298 82.7621 163.251C82.7818 163.204 82.7919 163.153 82.7919 163.101V161.793C82.7919 161.742 82.7818 161.691 82.7621 161.644C82.7424 161.596 82.7135 161.553 82.6771 161.517C82.6407 161.481 82.5975 161.452 82.55 161.432C82.5024 161.413 82.4514 161.402 82.4 161.402H81.7439V142.594H131.126C131.523 142.594 131.915 142.517 132.281 142.365C132.647 142.214 132.98 141.993 133.26 141.713C133.54 141.434 133.763 141.102 133.914 140.737C134.066 140.372 134.144 139.981 134.144 139.586V130.056L1.79986e-10 130.056Z" fill="#3F3D56"/>
<path d="M111.614 79.5148H52.1688C51.7941 79.5148 51.4347 79.3664 51.1697 79.1022C50.9047 78.838 50.7559 78.4797 50.7559 78.1061C50.7559 77.7324 50.9047 77.3741 51.1697 77.1099C51.4347 76.8457 51.7941 76.6973 52.1688 76.6973H111.614C111.988 76.6973 112.348 76.8457 112.613 77.1099C112.878 77.3741 113.027 77.7324 113.027 78.1061C113.027 78.4797 112.878 78.838 112.613 79.1022C112.348 79.3664 111.988 79.5148 111.614 79.5148Z" fill="#E6E6E6"/>
<path d="M91.6673 85.8743H72.1142C71.7395 85.8743 71.38 85.7259 71.115 85.4617C70.85 85.1975 70.7012 84.8391 70.7012 84.4655C70.7012 84.0918 70.85 83.7335 71.115 83.4693C71.38 83.2051 71.7395 83.0566 72.1142 83.0566H91.6673C92.042 83.0566 92.4014 83.2051 92.6664 83.4693C92.9314 83.7335 93.0803 84.0918 93.0803 84.4655C93.0803 84.8391 92.9314 85.1975 92.6664 85.4617C92.4014 85.7259 92.042 85.8743 91.6673 85.8743Z" fill="#E6E6E6"/>
<path d="M91.6673 98.7738H72.1142C71.7395 98.7738 71.38 98.6253 71.115 98.3611C70.85 98.0969 70.7012 97.7386 70.7012 97.3649C70.7012 96.9913 70.85 96.6329 71.115 96.3687C71.38 96.1045 71.7395 95.9561 72.1142 95.9561H91.6673C92.042 95.9561 92.4014 96.1045 92.6664 96.3687C92.9314 96.6329 93.0803 96.9913 93.0803 97.3649C93.0803 97.7386 92.9314 98.0969 92.6664 98.3611C92.4014 98.6253 92.042 98.7738 91.6673 98.7738Z" fill="#E6E6E6"/>
<path d="M91.6672 105.381H72.1141C71.9286 105.381 71.7449 105.345 71.5734 105.274C71.402 105.203 71.2462 105.099 71.115 104.968C70.9838 104.838 70.8797 104.682 70.8087 104.511C70.7377 104.34 70.7012 104.157 70.7012 103.972C70.7012 103.787 70.7377 103.604 70.8087 103.433C70.8797 103.262 70.9838 103.107 71.115 102.976C71.2462 102.845 71.402 102.742 71.5734 102.671C71.7449 102.6 71.9286 102.563 72.1141 102.563H91.6672C91.8528 102.563 92.0365 102.6 92.2079 102.671C92.3794 102.742 92.5351 102.845 92.6663 102.976C92.7975 103.107 92.9016 103.262 92.9726 103.433C93.0436 103.604 93.0802 103.787 93.0802 103.972C93.0802 104.157 93.0436 104.34 92.9726 104.511C92.9016 104.682 92.7975 104.838 92.6663 104.968C92.5351 105.099 92.3794 105.203 92.2079 105.274C92.0365 105.345 91.8528 105.381 91.6672 105.381Z" fill="#E6E6E6"/>
<path d="M102.633 92.2336H61.1483C60.7736 92.2336 60.4142 92.0852 60.1492 91.821C59.8842 91.5568 59.7354 91.1984 59.7354 90.8248C59.7354 90.4512 59.8842 90.0928 60.1492 89.8286C60.4142 89.5644 60.7736 89.416 61.1483 89.416H102.633C103.008 89.416 103.367 89.5644 103.632 89.8286C103.897 90.0928 104.046 90.4512 104.046 90.8248C104.046 91.1984 103.897 91.5568 103.632 91.821C103.367 92.0852 103.008 92.2336 102.633 92.2336Z" fill="#E6E6E6"/>
<path d="M110.623 118.908H103.524C102.887 118.908 102.275 118.656 101.825 118.207C101.374 117.757 101.121 117.148 101.121 116.513C101.121 115.877 101.374 115.268 101.825 114.819C102.275 114.37 102.887 114.117 103.524 114.117H110.623C111.261 114.117 111.872 114.37 112.322 114.819C112.773 115.268 113.026 115.877 113.026 116.513C113.026 117.148 112.773 117.757 112.322 118.207C111.872 118.656 111.261 118.908 110.623 118.908Z" fill="#2D2E30"/>
<path d="M33.4755 101.521C40.3009 101.521 45.8339 96.0047 45.8339 89.1996C45.8339 82.3945 40.3009 76.8779 33.4755 76.8779C26.6502 76.8779 21.1172 82.3945 21.1172 89.1996C21.1172 96.0047 26.6502 101.521 33.4755 101.521Z" fill="#2D2E30"/>
<path d="M178.094 164H0.327029C0.240468 163.999 0.157539 163.965 0.0964199 163.904C0.0353005 163.843 0.000976562 163.76 0.000976562 163.674C0.000976562 163.587 0.0353005 163.505 0.0964199 163.443C0.157539 163.382 0.240468 163.348 0.327029 163.348H178.094C178.18 163.348 178.263 163.382 178.324 163.443C178.385 163.505 178.42 163.587 178.42 163.674C178.42 163.76 178.385 163.843 178.324 163.904C178.263 163.965 178.18 163.999 178.094 164Z" fill="#CACACA"/>
<path d="M66.955 54.2423C67.2123 54.2423 67.4208 54.0344 67.4208 53.7779C67.4208 53.5214 67.2123 53.3135 66.955 53.3135C66.6978 53.3135 66.4893 53.5214 66.4893 53.7779C66.4893 54.0344 66.6978 54.2423 66.955 54.2423Z" fill="white"/>
</g>
<defs>
<clipPath id="clip0_932_6308">
<rect width="200" height="164" fill="white"/>
</clipPath>
</defs>
</svg>
